<svg width="16" height="16" viewBox="0 0 16 16" fill="none" xmlns="http://www.w3.org/2000/svg">
    <path d="M14.3401 7.99999C14.3401 11.6819 11.3554 14.6667 7.67346 14.6667M14.3401 7.99999C14.3401 4.3181 11.3554 1.33333 7.67346 1.33333M14.3401 7.99999H1.00679M7.67346 14.6667C3.99156 14.6667 1.00679 11.6819 1.00679 7.99999M7.67346 14.6667C9.34098 12.8411 10.2886 10.472 10.3401 7.99999C10.2886 5.52802 9.34098 3.1589 7.67346 1.33333M7.67346 14.6667C6.00594 12.8411 5.05829 10.472 5.00679 7.99999C5.05829 5.52802 6.00594 3.1589 7.67346 1.33333M1.00679 7.99999C1.00679 4.3181 3.99156 1.33333 7.67346 1.33333" stroke="#969696" stroke-width="1.33333" stroke-linecap="round" stroke-linejoin="round"/>
</svg>
