<svg width="17" height="14" viewBox="0 0 17 14" fill="none" xmlns="http://www.w3.org/2000/svg">
    <path d="M16.0753 0.973149C15.434 1.42548 14.724 1.77144 13.9726 1.9977C13.5693 1.53398 13.0333 1.20531 12.4371 1.05614C11.841 0.906962 11.2133 0.944485 10.6392 1.16363C10.065 1.38278 9.57201 1.77297 9.22683 2.28144C8.88166 2.78991 8.70097 3.39212 8.70921 4.00663V4.67627C7.5324 4.70679 6.36631 4.44579 5.3148 3.91653C4.26328 3.38726 3.35898 2.60616 2.68243 1.64279C2.68243 1.64279 0.00385392 7.66958 6.03064 10.3481C4.65153 11.2843 3.00865 11.7537 1.34314 11.6874C7.36993 15.0356 14.736 11.6874 14.736 3.98654C14.7354 3.80002 14.7174 3.61395 14.6824 3.43074C15.3659 2.75674 15.8482 1.90577 16.0753 0.973149Z" stroke="#969696" stroke-width="1.34511" stroke-linecap="round" stroke-linejoin="round"/>
</svg>
